<?xml version="1.0" encoding="utf-8" standalone="no"?>
<!DOCTYPE svg PUBLIC "-//W3C//DTD SVG 1.1//EN"
  "http://www.w3.org/Graphics/SVG/1.1/DTD/svg11.dtd">
<svg xmlns:xlink="http://www.w3.org/1999/xlink" width="164.88pt" height="164.88pt" viewBox="0 0 164.88 164.88" xmlns="http://www.w3.org/2000/svg" version="1.1">
 <metadata>
  <rdf:RDF xmlns:dc="http://purl.org/dc/elements/1.1/" xmlns:cc="http://creativecommons.org/ns#" xmlns:rdf="http://www.w3.org/1999/02/22-rdf-syntax-ns#">
   <cc:Work>
    <dc:type rdf:resource="http://purl.org/dc/dcmitype/StillImage"/>
    <dc:date>2023-06-01T11:30:56.088924</dc:date>
    <dc:format>image/svg+xml</dc:format>
    <dc:creator>
     <cc:Agent>
      <dc:title>Matplotlib v3.7.0, https://matplotlib.org/</dc:title>
     </cc:Agent>
    </dc:creator>
   </cc:Work>
  </rdf:RDF>
 </metadata>
 <defs>
  <style type="text/css">*{stroke-linejoin: round; stroke-linecap: butt}</style>
 </defs>
 <g id="figure_1">
  <g id="patch_1">
   <path d="M 0 164.88 
L 164.88 164.88 
L 164.88 0 
L 0 0 
z
" style="fill: #ffffff"/>
  </g>
  <g id="axes_1">
   <g id="patch_2">
    <path d="M 20.61 146.7432 
L 148.392 146.7432 
L 148.392 19.7856 
L 20.61 19.7856 
z
" style="fill: #ffffff"/>
   </g>
   <g id="matplotlib.axis_1">
    <g id="xtick_1">
     <g id="text_1">
      <!-- 0 -->
      <g style="fill: #262626" transform="translate(23.359757 164.116794) scale(0.11 -0.11)">
       <defs>
        <path id="ArialMT-30" d="M 266 2259 
Q 266 3072 433 3567 
Q 600 4063 929 4331 
Q 1259 4600 1759 4600 
Q 2128 4600 2406 4451 
Q 2684 4303 2865 4023 
Q 3047 3744 3150 3342 
Q 3253 2941 3253 2259 
Q 3253 1453 3087 958 
Q 2922 463 2592 192 
Q 2263 -78 1759 -78 
Q 1097 -78 719 397 
Q 266 969 266 2259 
z
M 844 2259 
Q 844 1131 1108 757 
Q 1372 384 1759 384 
Q 2147 384 2411 759 
Q 2675 1134 2675 2259 
Q 2675 3391 2411 3762 
Q 2147 4134 1753 4134 
Q 1366 4134 1134 3806 
Q 844 3388 844 2259 
z
" transform="scale(0.015625)"/>
       </defs>
       <use xlink:href="#ArialMT-30"/>
      </g>
     </g>
    </g>
    <g id="xtick_2">
     <g id="text_2">
      <!-- 50 -->
      <g style="fill: #262626" transform="translate(78.383969 164.116794) scale(0.11 -0.11)">
       <defs>
        <path id="ArialMT-35" d="M 266 1200 
L 856 1250 
Q 922 819 1161 601 
Q 1400 384 1738 384 
Q 2144 384 2425 690 
Q 2706 997 2706 1503 
Q 2706 1984 2436 2262 
Q 2166 2541 1728 2541 
Q 1456 2541 1237 2417 
Q 1019 2294 894 2097 
L 366 2166 
L 809 4519 
L 3088 4519 
L 3088 3981 
L 1259 3981 
L 1013 2750 
Q 1425 3038 1878 3038 
Q 2478 3038 2890 2622 
Q 3303 2206 3303 1553 
Q 3303 931 2941 478 
Q 2500 -78 1738 -78 
Q 1113 -78 717 272 
Q 322 622 266 1200 
z
" transform="scale(0.015625)"/>
       </defs>
       <use xlink:href="#ArialMT-35"/>
       <use xlink:href="#ArialMT-30" x="55.615234"/>
      </g>
     </g>
    </g>
    <g id="xtick_3">
     <g id="text_3">
      <!-- 100 -->
      <g style="fill: #262626" transform="translate(133.40818 164.116794) scale(0.11 -0.11)">
       <defs>
        <path id="ArialMT-31" d="M 2384 0 
L 1822 0 
L 1822 3584 
Q 1619 3391 1289 3197 
Q 959 3003 697 2906 
L 697 3450 
Q 1169 3672 1522 3987 
Q 1875 4303 2022 4600 
L 2384 4600 
L 2384 0 
z
" transform="scale(0.015625)"/>
       </defs>
       <use xlink:href="#ArialMT-31"/>
       <use xlink:href="#ArialMT-30" x="55.615234"/>
       <use xlink:href="#ArialMT-30" x="111.230469"/>
      </g>
     </g>
    </g>
   </g>
   <g id="matplotlib.axis_2">
    <g id="ytick_1">
     <g id="text_4">
      <!-- 0 -->
      <g style="fill: #262626" transform="translate(4.992969 94.94374) scale(0.11 -0.11)">
       <use xlink:href="#ArialMT-30"/>
      </g>
     </g>
    </g>
   </g>
   <g id="PolyCollection_1">
    <defs>
     <path id="m2fa4a03c8c" d="M 27.579927 -138.951216 
L 27.579927 -98.611618 
L 32.371752 -92.701751 
L 37.163577 -86.934488 
L 41.955402 -81.449675 
L 46.747227 -75.214798 
L 51.539052 -69.195466 
L 56.330877 -65.012803 
L 61.122702 -61.803043 
L 65.914527 -61.001868 
L 70.706352 -59.279881 
L 75.498177 -57.29649 
L 80.290002 -56.284976 
L 85.081827 -55.536823 
L 89.873652 -55.181544 
L 94.665477 -55.502619 
L 99.457302 -55.381564 
L 104.249127 -55.14487 
L 109.040952 -55.432866 
L 113.832777 -53.871932 
L 118.624602 -53.944061 
L 123.416427 -53.989776 
L 128.208252 -54.044269 
L 133.000077 -53.659262 
L 137.791902 -53.341544 
L 142.583727 -50.892576 
L 142.583727 -79.54073 
L 142.583727 -79.54073 
L 137.791902 -77.314812 
L 133.000077 -77.220145 
L 128.208252 -77.413859 
L 123.416427 -76.552093 
L 118.624602 -76.001603 
L 113.832777 -74.958026 
L 109.040952 -72.787131 
L 104.249127 -71.857892 
L 99.457302 -70.607417 
L 94.665477 -69.839775 
L 89.873652 -70.476475 
L 85.081827 -70.832996 
L 80.290002 -71.492113 
L 75.498177 -72.789508 
L 70.706352 -74.462093 
L 65.914527 -77.619092 
L 61.122702 -83.499502 
L 56.330877 -89.473959 
L 51.539052 -96.679235 
L 46.747227 -103.768742 
L 41.955402 -112.299467 
L 37.163577 -121.024317 
L 32.371752 -130.059068 
L 27.579927 -138.951216 
z
" style="stroke: #4c72b0; stroke-opacity: 0.2"/>
    </defs>
    <g clip-path="url(#p60970563b1)">
     <use xlink:href="#m2fa4a03c8c" x="0" y="164.88" style="fill: #4c72b0; fill-opacity: 0.2; stroke: #4c72b0; stroke-opacity: 0.2"/>
    </g>
   </g>
   <g id="PolyCollection_2">
    <defs>
     <path id="m117f273082" d="M 27.579927 -111.331334 
L 27.579927 -48.388753 
L 32.371752 -45.707549 
L 37.163577 -43.115654 
L 41.955402 -39.993761 
L 46.747227 -32.351412 
L 51.539052 -27.409127 
L 56.330877 -24.235728 
L 61.122702 -23.9076 
L 65.914527 -26.274027 
L 70.706352 -27.925034 
L 75.498177 -30.134461 
L 80.290002 -33.867154 
L 85.081827 -40.051819 
L 89.873652 -44.238932 
L 94.665477 -48.821224 
L 99.457302 -53.600644 
L 104.249127 -58.635414 
L 109.040952 -62.96392 
L 113.832777 -67.381748 
L 118.624602 -70.873279 
L 123.416427 -73.243173 
L 128.208252 -75.626877 
L 133.000077 -79.421187 
L 137.791902 -82.673976 
L 142.583727 -83.041917 
L 142.583727 -139.3236 
L 142.583727 -139.3236 
L 137.791902 -132.482956 
L 133.000077 -128.52716 
L 128.208252 -124.890479 
L 123.416427 -122.042593 
L 118.624602 -117.748718 
L 113.832777 -112.128837 
L 109.040952 -107.203122 
L 104.249127 -101.273301 
L 99.457302 -95.653475 
L 94.665477 -89.135175 
L 89.873652 -83.718254 
L 85.081827 -78.941192 
L 80.290002 -76.204096 
L 75.498177 -73.011057 
L 70.706352 -71.183337 
L 65.914527 -71.308266 
L 61.122702 -74.650451 
L 56.330877 -79.25536 
L 51.539052 -84.519522 
L 46.747227 -90.746355 
L 41.955402 -94.393397 
L 37.163577 -99.948468 
L 32.371752 -105.684555 
L 27.579927 -111.331334 
z
" style="stroke: #dd8452; stroke-opacity: 0.2"/>
    </defs>
    <g clip-path="url(#p60970563b1)">
     <use xlink:href="#m117f273082" x="0" y="164.88" style="fill: #dd8452; fill-opacity: 0.2; stroke: #dd8452; stroke-opacity: 0.2"/>
    </g>
   </g>
   <g id="line2d_1">
    <path d="M 26.418273 91.006943 
L 142.583727 91.006943 
" clip-path="url(#p60970563b1)" style="fill: none; stroke: #999999; stroke-width: 1.5; stroke-linecap: round"/>
   </g>
   <g id="line2d_2">
    <path d="M 27.579927 46.098583 
L 32.371752 53.49959 
L 37.163577 60.900598 
L 41.955402 68.005429 
L 46.747227 75.38823 
L 51.539052 81.94265 
L 56.330877 87.636619 
L 61.122702 92.228728 
L 65.914527 95.56952 
L 70.706352 98.009013 
L 75.498177 99.837001 
L 80.290002 100.991456 
L 85.081827 101.69509 
L 89.873652 102.05099 
L 94.665477 102.208803 
L 99.457302 101.885509 
L 104.249127 101.378619 
L 109.040952 100.770002 
L 113.832777 100.465021 
L 118.624602 99.907168 
L 123.416427 99.609065 
L 128.208252 99.150936 
L 133.000077 99.440297 
L 137.791902 99.551822 
L 142.583727 99.663347 
" clip-path="url(#p60970563b1)" style="fill: none; stroke: #4c72b0; stroke-width: 1.5; stroke-linecap: round"/>
   </g>
   <g id="line2d_3">
    <path d="M 27.579927 85.019957 
L 32.371752 89.183948 
L 37.163577 93.347939 
L 41.955402 97.686421 
L 46.747227 103.331116 
L 51.539052 108.915676 
L 56.330877 113.134456 
L 61.122702 115.600975 
L 65.914527 116.088854 
L 70.706352 115.325814 
L 75.498177 113.307241 
L 80.290002 109.844375 
L 85.081827 105.383494 
L 89.873652 100.901407 
L 94.665477 95.901801 
L 99.457302 90.25294 
L 104.249127 84.925642 
L 109.040952 79.796479 
L 113.832777 75.124707 
L 118.624602 70.569001 
L 123.416427 67.237117 
L 128.208252 64.621322 
L 133.000077 60.905826 
L 137.791902 57.301534 
L 142.583727 53.697241 
" clip-path="url(#p60970563b1)" style="fill: none; stroke: #dd8452; stroke-width: 1.5; stroke-linecap: round"/>
   </g>
   <g id="line2d_4">
    <defs>
     <path id="mc3c3dea403" d="M 0 1.5 
C 0.397805 1.5 0.77937 1.341951 1.06066 1.06066 
C 1.341951 0.77937 1.5 0.397805 1.5 0 
C 1.5 -0.397805 1.341951 -0.77937 1.06066 -1.06066 
C 0.77937 -1.341951 0.397805 -1.5 0 -1.5 
C -0.397805 -1.5 -0.77937 -1.341951 -1.06066 -1.06066 
C -1.341951 -0.77937 -1.5 -0.397805 -1.5 0 
C -1.5 0.397805 -1.341951 0.77937 -1.06066 1.06066 
C -0.77937 1.341951 -0.397805 1.5 0 1.5 
z
" style="stroke: #4c72b0"/>
    </defs>
    <g clip-path="url(#p60970563b1)">
     <use xlink:href="#mc3c3dea403" x="27.579927" y="46.098583" style="fill: #4c72b0; stroke: #4c72b0"/>
     <use xlink:href="#mc3c3dea403" x="32.371752" y="53.49959" style="fill: #4c72b0; stroke: #4c72b0"/>
     <use xlink:href="#mc3c3dea403" x="37.163577" y="60.900598" style="fill: #4c72b0; stroke: #4c72b0"/>
     <use xlink:href="#mc3c3dea403" x="41.955402" y="68.005429" style="fill: #4c72b0; stroke: #4c72b0"/>
     <use xlink:href="#mc3c3dea403" x="46.747227" y="75.38823" style="fill: #4c72b0; stroke: #4c72b0"/>
     <use xlink:href="#mc3c3dea403" x="51.539052" y="81.94265" style="fill: #4c72b0; stroke: #4c72b0"/>
     <use xlink:href="#mc3c3dea403" x="56.330877" y="87.636619" style="fill: #4c72b0; stroke: #4c72b0"/>
     <use xlink:href="#mc3c3dea403" x="61.122702" y="92.228728" style="fill: #4c72b0; stroke: #4c72b0"/>
     <use xlink:href="#mc3c3dea403" x="65.914527" y="95.56952" style="fill: #4c72b0; stroke: #4c72b0"/>
     <use xlink:href="#mc3c3dea403" x="70.706352" y="98.009013" style="fill: #4c72b0; stroke: #4c72b0"/>
     <use xlink:href="#mc3c3dea403" x="75.498177" y="99.837001" style="fill: #4c72b0; stroke: #4c72b0"/>
     <use xlink:href="#mc3c3dea403" x="80.290002" y="100.991456" style="fill: #4c72b0; stroke: #4c72b0"/>
     <use xlink:href="#mc3c3dea403" x="85.081827" y="101.69509" style="fill: #4c72b0; stroke: #4c72b0"/>
     <use xlink:href="#mc3c3dea403" x="89.873652" y="102.05099" style="fill: #4c72b0; stroke: #4c72b0"/>
     <use xlink:href="#mc3c3dea403" x="94.665477" y="102.208803" style="fill: #4c72b0; stroke: #4c72b0"/>
     <use xlink:href="#mc3c3dea403" x="99.457302" y="101.885509" style="fill: #4c72b0; stroke: #4c72b0"/>
     <use xlink:href="#mc3c3dea403" x="104.249127" y="101.378619" style="fill: #4c72b0; stroke: #4c72b0"/>
     <use xlink:href="#mc3c3dea403" x="109.040952" y="100.770002" style="fill: #4c72b0; stroke: #4c72b0"/>
     <use xlink:href="#mc3c3dea403" x="113.832777" y="100.465021" style="fill: #4c72b0; stroke: #4c72b0"/>
     <use xlink:href="#mc3c3dea403" x="118.624602" y="99.907168" style="fill: #4c72b0; stroke: #4c72b0"/>
     <use xlink:href="#mc3c3dea403" x="123.416427" y="99.609065" style="fill: #4c72b0; stroke: #4c72b0"/>
     <use xlink:href="#mc3c3dea403" x="128.208252" y="99.150936" style="fill: #4c72b0; stroke: #4c72b0"/>
     <use xlink:href="#mc3c3dea403" x="133.000077" y="99.440297" style="fill: #4c72b0; stroke: #4c72b0"/>
     <use xlink:href="#mc3c3dea403" x="137.791902" y="99.551822" style="fill: #4c72b0; stroke: #4c72b0"/>
     <use xlink:href="#mc3c3dea403" x="142.583727" y="99.663347" style="fill: #4c72b0; stroke: #4c72b0"/>
    </g>
   </g>
   <g id="line2d_5">
    <defs>
     <path id="mc96059112a" d="M 0 1.5 
C 0.397805 1.5 0.77937 1.341951 1.06066 1.06066 
C 1.341951 0.77937 1.5 0.397805 1.5 0 
C 1.5 -0.397805 1.341951 -0.77937 1.06066 -1.06066 
C 0.77937 -1.341951 0.397805 -1.5 0 -1.5 
C -0.397805 -1.5 -0.77937 -1.341951 -1.06066 -1.06066 
C -1.341951 -0.77937 -1.5 -0.397805 -1.5 0 
C -1.5 0.397805 -1.341951 0.77937 -1.06066 1.06066 
C -0.77937 1.341951 -0.397805 1.5 0 1.5 
z
" style="stroke: #dd8452"/>
    </defs>
    <g clip-path="url(#p60970563b1)">
     <use xlink:href="#mc96059112a" x="27.579927" y="85.019957" style="fill: #dd8452; stroke: #dd8452"/>
     <use xlink:href="#mc96059112a" x="32.371752" y="89.183948" style="fill: #dd8452; stroke: #dd8452"/>
     <use xlink:href="#mc96059112a" x="37.163577" y="93.347939" style="fill: #dd8452; stroke: #dd8452"/>
     <use xlink:href="#mc96059112a" x="41.955402" y="97.686421" style="fill: #dd8452; stroke: #dd8452"/>
     <use xlink:href="#mc96059112a" x="46.747227" y="103.331116" style="fill: #dd8452; stroke: #dd8452"/>
     <use xlink:href="#mc96059112a" x="51.539052" y="108.915676" style="fill: #dd8452; stroke: #dd8452"/>
     <use xlink:href="#mc96059112a" x="56.330877" y="113.134456" style="fill: #dd8452; stroke: #dd8452"/>
     <use xlink:href="#mc96059112a" x="61.122702" y="115.600975" style="fill: #dd8452; stroke: #dd8452"/>
     <use xlink:href="#mc96059112a" x="65.914527" y="116.088854" style="fill: #dd8452; stroke: #dd8452"/>
     <use xlink:href="#mc96059112a" x="70.706352" y="115.325814" style="fill: #dd8452; stroke: #dd8452"/>
     <use xlink:href="#mc96059112a" x="75.498177" y="113.307241" style="fill: #dd8452; stroke: #dd8452"/>
     <use xlink:href="#mc96059112a" x="80.290002" y="109.844375" style="fill: #dd8452; stroke: #dd8452"/>
     <use xlink:href="#mc96059112a" x="85.081827" y="105.383494" style="fill: #dd8452; stroke: #dd8452"/>
     <use xlink:href="#mc96059112a" x="89.873652" y="100.901407" style="fill: #dd8452; stroke: #dd8452"/>
     <use xlink:href="#mc96059112a" x="94.665477" y="95.901801" style="fill: #dd8452; stroke: #dd8452"/>
     <use xlink:href="#mc96059112a" x="99.457302" y="90.25294" style="fill: #dd8452; stroke: #dd8452"/>
     <use xlink:href="#mc96059112a" x="104.249127" y="84.925642" style="fill: #dd8452; stroke: #dd8452"/>
     <use xlink:href="#mc96059112a" x="109.040952" y="79.796479" style="fill: #dd8452; stroke: #dd8452"/>
     <use xlink:href="#mc96059112a" x="113.832777" y="75.124707" style="fill: #dd8452; stroke: #dd8452"/>
     <use xlink:href="#mc96059112a" x="118.624602" y="70.569001" style="fill: #dd8452; stroke: #dd8452"/>
     <use xlink:href="#mc96059112a" x="123.416427" y="67.237117" style="fill: #dd8452; stroke: #dd8452"/>
     <use xlink:href="#mc96059112a" x="128.208252" y="64.621322" style="fill: #dd8452; stroke: #dd8452"/>
     <use xlink:href="#mc96059112a" x="133.000077" y="60.905826" style="fill: #dd8452; stroke: #dd8452"/>
     <use xlink:href="#mc96059112a" x="137.791902" y="57.301534" style="fill: #dd8452; stroke: #dd8452"/>
     <use xlink:href="#mc96059112a" x="142.583727" y="53.697241" style="fill: #dd8452; stroke: #dd8452"/>
    </g>
   </g>
   <g id="patch_3">
    <path d="M 20.61 146.7432 
L 20.61 19.7856 
" style="fill: none; stroke: #262626; stroke-width: 1.25; stroke-linejoin: miter; stroke-linecap: square"/>
   </g>
   <g id="patch_4">
    <path d="M 148.392 146.7432 
L 148.392 19.7856 
" style="fill: none; stroke: #262626; stroke-width: 1.25; stroke-linejoin: miter; stroke-linecap: square"/>
   </g>
   <g id="patch_5">
    <path d="M 20.61 146.7432 
L 148.392 146.7432 
" style="fill: none; stroke: #262626; stroke-width: 1.25; stroke-linejoin: miter; stroke-linecap: square"/>
   </g>
   <g id="patch_6">
    <path d="M 20.61 19.7856 
L 148.392 19.7856 
" style="fill: none; stroke: #262626; stroke-width: 1.25; stroke-linejoin: miter; stroke-linecap: square"/>
   </g>
  </g>
 </g>
 <defs>
  <clipPath id="p60970563b1">
   <rect x="20.61" y="19.7856" width="127.782" height="126.9576"/>
  </clipPath>
 </defs>
</svg>
